# xmcd CD database file
#
# Track frame offsets:
#	150
#	13581
#	32453
#	50608
#	69252
#	84328
#	105675
#	128276
#	151019
#	172698
#	190382
#	206071
#	223759
#	248575
#
# Disc length: 3552 seconds
#
# Revision: 0
# Processed by: cddbd v1.5.2PL0 Copyright (c) Steve Scherf et al.
# Submitted via: CDex 1.51
#
DISCID=a70dde0e
DTITLE=G-SAX - Sax-Solo
DYEAR=1900
DGENRE=Jazz
TTITLE0=You are the sunshine of my life
TTITLE1=It's raining again!
TTITLE2=Sad samba
TTITLE3=Yesterday
TTITLE4=Jazzy Waltz
TTITLE5=Isn't she lovely
TTITLE6=The greatest love of all
TTITLE7=Morning dance
TTITLE8=I've grown accustomed her face
TTITLE9=Saving all my love for you
TTITLE10=Bermuda summer
TTITLE11=I got rhythm
TTITLE12=Don't let the sun go down
TTITLE13=Over the rainbow
EXTD=
EXTT0=
EXTT1=
EXTT2=
EXTT3=
EXTT4=
EXTT5=
EXTT6=
EXTT7=
EXTT8=
EXTT9=
EXTT10=
EXTT11=
EXTT12=
EXTT13=
PLAYORDER=
